<?xml version="1.0" standalone="no"?><!DOCTYPE svg PUBLIC "-//W3C//DTD SVG 1.1//EN" "http://www.w3.org/Graphics/SVG/1.1/DTD/svg11.dtd"><svg t="1642344818422" class="icon" viewBox="0 0 1024 1024" version="1.1" xmlns="http://www.w3.org/2000/svg" p-id="1683" xmlns:xlink="http://www.w3.org/1999/xlink" width="32" height="32"><defs><style type="text/css"></style></defs><path d="M897.002 327.262c0 4.837-4.857 8.759-10.85 8.759H158.347c-5.991 0-10.849-3.922-10.849-8.759V181.277c0-4.837 4.858-8.759 10.849-8.759h727.805c5.992 0 10.85 3.922 10.85 8.759v145.985zM897.002 830.798c0 4.541-4.857 8.224-10.85 8.224H158.347c-5.991 0-10.849-3.683-10.849-8.224V693.741c0-4.541 4.858-8.224 10.849-8.224h727.805c5.992 0 10.85 3.683 10.85 8.224v137.057z" fill="#BAD4FF" p-id="1684"></path><path d="M181.406 355.181c-29.055 0-52.691-24.845-52.691-55.383V212.49c0-30.538 23.637-55.383 52.691-55.383h679.117c29.052 0 52.688 24.845 52.688 55.383v87.308c0 30.538-23.636 55.383-52.688 55.383H181.406z m0-174.863c-16.256 0-29.48 14.432-29.48 32.172v87.308c0 17.737 13.225 32.168 29.48 32.168h679.117c16.254 0 29.477-14.431 29.477-32.168V212.49c0-17.74-13.223-32.172-29.477-32.172H181.406zM181.406 860.693c-29.055 0-52.691-24.845-52.691-55.383V718c0-30.538 23.637-55.383 52.691-55.383h679.117c29.052 0 52.688 24.845 52.688 55.383v87.311c0 30.538-23.636 55.383-52.688 55.383H181.406z m0-174.865c-16.256 0-29.48 14.433-29.48 32.172v87.311c0 17.739 13.225 32.172 29.48 32.172h679.117c16.254 0 29.477-14.433 29.477-32.172V718c0-17.739-13.223-32.172-29.477-32.172H181.406zM184.574 456.044c-6.399 0-11.605-5.206-11.605-11.605s5.206-11.606 11.605-11.606h677.805c6.399 0 11.605 5.207 11.605 11.606s-5.206 11.605-11.605 11.605H184.574zM184.574 581.131c-6.399 0-11.605-5.206-11.605-11.605 0-6.4 5.206-11.607 11.605-11.607h677.805c6.399 0 11.605 5.207 11.605 11.607 0 6.399-5.206 11.605-11.605 11.605H184.574z" fill="#5387F8" p-id="1685"></path></svg>